<svg xmlns="http://www.w3.org/2000/svg" viewBox="0 0 400 400" width="400" height="400">
  <defs>
    <linearGradient id="bgGradient" x1="0%" y1="0%" x2="100%" y2="100%">
      <stop offset="0%" style="stop-color:#0066cc;stop-opacity:0.1"/>
      <stop offset="100%" style="stop-color:#4da6ff;stop-opacity:0.3"/>
    </linearGradient>
    <linearGradient id="faceGradient" x1="0%" y1="0%" x2="100%" y2="100%">
      <stop offset="0%" style="stop-color:#4da6ff;stop-opacity:0.8"/>
      <stop offset="100%" style="stop-color:#0066cc;stop-opacity:0.6"/>
    </linearGradient>
  </defs>
  
  <!-- Background circles -->
  <circle cx="100" cy="100" r="60" fill="url(#bgGradient)"/>
  <circle cx="320" cy="120" r="80" fill="url(#bgGradient)"/>
  <circle cx="250" cy="320" r="70" fill="url(#bgGradient)"/>
  
  <!-- Tech lines and nodes -->
  <g stroke="#4da6ff" stroke-width="2" fill="none" opacity="0.6">
    <line x1="50" y1="200" x2="150" y2="200"/>
    <line x1="250" y1="180" x2="350" y2="180"/>
    <line x1="200" y1="50" x2="200" y2="100"/>
    <line x1="180" y1="350" x2="220" y2="350"/>
    <circle cx="50" cy="200" r="4" fill="#4da6ff"/>
    <circle cx="150" cy="200" r="4" fill="#4da6ff"/>
    <circle cx="350" cy="180" r="4" fill="#4da6ff"/>
    <circle cx="200" cy="50" r="4" fill="#4da6ff"/>
  </g>
  
  <!-- Central tech face outline -->
  <g stroke="#0066cc" stroke-width="3" fill="none" opacity="0.8" transform="translate(200,200)">
    <!-- Head outline -->
    <ellipse cx="0" cy="-10" rx="65" ry="80"/>
    
    <!-- Tech grid overlay on face -->
    <g stroke="#4da6ff" stroke-width="1" opacity="0.5">
      <line x1="-40" y1="-40" x2="40" y2="-40"/>
      <line x1="-40" y1="-20" x2="40" y2="-20"/>
      <line x1="-40" y1="0" x2="40" y2="0"/>
      <line x1="-40" y1="20" x2="40" y2="20"/>
      <line x1="-40" y1="40" x2="40" y2="40"/>
      
      <line x1="-40" y1="-40" x2="-40" y2="40"/>
      <line x1="-20" y1="-40" x2="-20" y2="40"/>
      <line x1="0" y1="-40" x2="0" y2="40"/>
      <line x1="20" y1="-40" x2="20" y2="40"/>
      <line x1="40" y1="-40" x2="40" y2="40"/>
    </g>
    
    <!-- Eyes -->
    <circle cx="-20" cy="-20" r="8" fill="#0066cc" opacity="0.7"/>
    <circle cx="20" cy="-20" r="8" fill="#0066cc" opacity="0.7"/>
    <circle cx="-20" cy="-20" r="3" fill="#ffffff"/>
    <circle cx="20" cy="-20" r="3" fill="#ffffff"/>
    
    <!-- Nose -->
    <line x1="0" y1="-10" x2="0" y2="5" stroke="#0066cc" stroke-width="2"/>
    
    <!-- Mouth -->
    <path d="M -15,15 Q 0,25 15,15" stroke="#0066cc" stroke-width="2" fill="none"/>
  </g>
  
  <!-- Floating tech elements -->
  <g fill="#4da6ff" opacity="0.4">
    <rect x="30" y="50" width="8" height="8" rx="2"/>
    <rect x="360" y="300" width="6" height="6" rx="1"/>
    <circle cx="80" cy="350" r="3"/>
    <circle cx="350" cy="80" r="4"/>
  </g>
  
  <!-- Search/scan lines -->
  <g stroke="#0066cc" stroke-width="1" opacity="0.3">
    <line x1="0" y1="200" x2="400" y2="200" stroke-dasharray="5,5">
      <animate attributeName="stroke-dashoffset" values="0;10" dur="2s" repeatCount="indefinite"/>
    </line>
    <line x1="200" y1="0" x2="200" y2="400" stroke-dasharray="5,5">
      <animate attributeName="stroke-dashoffset" values="0;10" dur="2s" repeatCount="indefinite"/>
    </line>
  </g>
  
  <!-- Corner brackets for scanner effect -->
  <g stroke="#0066cc" stroke-width="3" fill="none" opacity="0.6">
    <path d="M 120,120 L 120,140 L 140,140"/>
    <path d="M 280,120 L 280,140 L 260,140"/>
    <path d="M 120,280 L 120,260 L 140,260"/>
    <path d="M 280,280 L 280,260 L 260,260"/>
  </g>
</svg>
