<?xml version="1.0" encoding="UTF-8"?>
<svg version="1.1" xmlns="http://www.w3.org/2000/svg" width="500" height="500">
<path d="M0 0 C165 0 330 0 500 0 C500 165 500 330 500 500 C335 500 170 500 0 500 C0 335 0 170 0 0 Z " fill="#068FE9" transform="translate(0,0)"/>
<path d="M0 0 C165 0 330 0 500 0 C500 165 500 330 500 500 C440.6 500 381.2 500 320 500 C319.67 498.02 319.34 496.04 319 494 C319.99 494 320.98 494 322 494 C322.12375 493.401875 322.2475 492.80375 322.375 492.1875 C323 490 323 490 325 487 C325.66 487 326.32 487 327 487 C327.061875 486.0925 327.12375 485.185 327.1875 484.25 C328.41389691 475.99668029 332.42697046 468.72157731 337 461.875 C340.39583003 456.60319645 342.1266609 451.75775791 343.625 445.6875 C345.55606602 437.87575476 347.70939903 431.948978 354.5859375 427.22265625 C357.67094023 424.38225729 357.93831388 422.40057137 358.625 418.3125 C359.2265625 414.80078125 359.2265625 414.80078125 360 412 C360.99 411.67 361.98 411.34 363 411 C363 410.34 363 409.68 363 409 C362.01 409 361.02 409 360 409 C359.73264599 397.88809884 359.73264599 397.88809884 362.53125 393.71875 C366.87740529 389.78651426 372.27386377 386.42609096 378 385 C381.0625 385.75 381.0625 385.75 383 387 C384.0828125 385.8553125 384.0828125 385.8553125 385.1875 384.6875 C387.71148888 382.2756884 390.03010433 380.76588391 393 379 C393.66 378.01 394.32 377.02 395 376 C394.360625 375.87625 393.72125 375.7525 393.0625 375.625 C392.0415625 375.315625 392.0415625 375.315625 391 375 C390.67 374.34 390.34 373.68 390 373 C390.66 372.34 391.32 371.68 392 371 C392 371.99 392 372.98 392 374 C393.98 374 395.96 374 398 374 C398.33 373.34 398.66 372.68 399 372 C399 372.66 399 373.32 399 374 C402.24849977 372.27773504 402.24849977 372.27773504 403 369 C402.01 369 401.02 369 400 369 C397.57142857 361.57142857 397.57142857 361.57142857 399 358 C399.33 359.32 399.66 360.64 400 362 C404.32371893 359.97366931 404.32371893 359.97366931 408 357 C409.66666667 356.66666667 411.33333333 356.33333333 413 356 C413.66 355.34 414.32 354.68 415 354 C416.32 354.66 417.64 355.32 419 356 C419.66386719 355.20335937 420.32773437 354.40671875 421.01171875 353.5859375 C425.34114583 348.390625 429.67057292 343.1953125 434 338 C432.56538776 333.80299609 430.50637819 330.83416336 427.75 327.375 C422.62547417 320.86938258 417.71205146 314.22064353 412.82324219 307.53662109 C412.25508789 306.76141113 411.68693359 305.98620117 411.1015625 305.1875 C410.59963379 304.50042969 410.09770508 303.81335938 409.58056641 303.10546875 C408.00714704 300.91931442 408.00714704 300.91931442 405.93464279 298.86014175 C403.49397634 295.25190355 403.4294563 292.34001458 403.46514893 288.13226318 C403.4560867 287.34621555 403.44702447 286.56016791 403.43768764 285.75030065 C403.41239044 283.11942674 403.41564054 280.48938041 403.41894531 277.85839844 C403.40697509 275.97079911 403.39336407 274.08320958 403.37823486 272.19563293 C403.34289276 267.06940281 403.33352314 261.94343974 403.33097172 256.81709957 C403.32812823 253.61301586 403.31958816 250.40900002 403.30898285 247.20493317 C403.27197256 236.02280874 403.25564251 224.84087505 403.25878906 213.65869141 C403.26119108 203.24232103 403.21900644 192.82678003 403.15581441 182.4106195 C403.10346798 173.46264179 403.08205536 164.51493474 403.0846107 155.56680512 C403.08562954 150.22475934 403.07428841 144.88345032 403.0318985 139.54155731 C402.99309721 134.51456966 402.99290594 129.48901993 403.02196503 124.46198082 C403.02613948 122.62096996 403.01674867 120.77986872 402.99252319 118.93901253 C402.80035557 103.32007434 402.80035557 103.32007434 407.93572998 97.33380127 C411.48740381 94 411.48740381 94 414 94 C414.25523437 93.4225 414.51046875 92.845 414.7734375 92.25 C416.1258388 89.76916194 417.67974678 88.04600338 419.625 86 C423.93478385 81.24144153 427.36729844 76.13065817 430.84912109 70.75097656 C433.05163031 67.40002279 435.34465184 64.11073712 437.625 60.8125 C441.46792469 55.24177423 445.27848913 49.6529279 449 44 C444.05685061 43.31637296 439.34610068 42.82879379 434.375 43.4375 C415.65676524 45.54367222 415.65676524 45.54367222 410.734375 42.68359375 C409.0625 40.9375 409.0625 40.9375 407.5859375 39.01171875 C405.1631209 35.93844153 402.05030365 33.88559374 398.91796875 31.578125 C397 30 397 30 395 27 C389.80966166 27.5066242 386.08661561 28.70723157 381.50390625 31.16796875 C376.57356665 33.75049987 371.6182131 36.07375011 366.46484375 38.17578125 C365.21128271 38.69913785 363.95802719 39.22322685 362.70507812 39.74804688 C360.80879318 40.54114641 358.91090759 41.3229689 356.99829102 42.07592773 C347.88469703 45.54432385 347.88469703 45.54432385 342.046875 52.9921875 C341.71550537 53.84627197 341.38413574 54.70035645 341.04272461 55.58032227 C339.35038193 59.50746072 336.44125093 61.98847453 333.3125 64.8125 C327.99733601 69.59237693 327.99733601 69.59237693 325 76 C324.34 76 323.68 76 323 76 C322.67 75.34 322.34 74.68 322 74 C320.02111039 73.27306096 318.02045442 72.60183749 316 72 C316 71.01 316 70.02 316 69 C315.07767578 68.92652344 315.07767578 68.92652344 314.13671875 68.8515625 C313.32847656 68.77679688 312.52023437 68.70203125 311.6875 68.625 C310.88699219 68.55539063 310.08648437 68.48578125 309.26171875 68.4140625 C307 68 307 68 304 66 C301.55658225 65.87086484 301.55658225 65.87086484 298.875 66.0625 C292.78293996 66.18353431 287.49899361 65.032378 282.20019531 61.95458984 C279.55948967 60.80887757 277.69465813 60.80083776 274.82421875 60.875 C273.83099609 60.89046875 272.83777344 60.9059375 271.81445312 60.921875 C269.74152913 60.97366573 267.66861234 61.02574574 265.59570312 61.078125 C257.25029516 61.20759481 251.52138095 60.56972014 245 55 C242.48013157 53.34720609 239.89145217 51.80856694 237.3125 50.25 C232.75034731 47.45295068 228.39283235 44.66908793 224.3125 41.1875 C218.42985725 36.2379661 211.79387503 32.43145626 205.22192383 28.47924805 C204.33529053 27.94340088 203.44865723 27.40755371 202.53515625 26.85546875 C201.734729 26.37746826 200.93430176 25.89946777 200.10961914 25.40698242 C198 24 198 24 196.59605408 22.51467896 C191.75859194 17.92385575 184.66599197 17.50900882 178.34375 17.26953125 C177.16214294 17.20931038 177.16214294 17.20931038 175.95666504 17.14787292 C173.47151769 17.02397058 170.98599227 16.91793271 168.5 16.8125 C166.80202599 16.73100373 165.10410796 16.64833228 163.40625 16.56445312 C159.27135556 16.36272268 155.13602406 16.17699488 151 16 C150.945945 20.85894382 150.96714512 25.60683575 151.5625 30.4375 C151.95239472 34.19945719 151.92168361 37.56289201 151.4375 41.3125 C150.9154859 45.43641141 151.45599486 48.09457524 153 52 C153.1875 54.8125 153.1875 54.8125 153 57 C152.67 57.33 152.34 57.66 152 58 C151.25051661 68.73678528 152.0945158 77.12759633 158.5625 85.859375 C160.10479075 88.15604709 160.99346639 90.43145988 162 93 C164.89878183 96.77720057 167.110596 98.23820862 171.68359375 99.14453125 C172.4923999 99.30928955 173.30120605 99.47404785 174.13452148 99.64379883 C174.75012939 99.76134521 175.3657373 99.8788916 176 100 C176.05802698 103.43742918 176.09360486 106.87473253 176.125 110.3125 C176.14175781 111.28896484 176.15851563 112.26542969 176.17578125 113.27148438 C176.18222656 114.20927734 176.18867188 115.14707031 176.1953125 116.11328125 C176.20578613 116.97735596 176.21625977 117.84143066 176.22705078 118.73168945 C176 121 176 121 174 124 C171.4375 124.75 171.4375 124.75 169 125 C167.09332232 123.09332232 167.15828186 119.8107733 166.6953125 117.2265625 C165.90185604 114.68571878 164.87032523 113.83176182 163 112 C162.2265625 109.9140625 162.2265625 109.9140625 161.625 107.625 C159.92823594 102.1812153 157.12060962 99.4482212 152.4375 96.25 C150.25377218 95.13013958 148.40167444 94.44475453 146 94 C146.165 93.505 146.33 93.01 146.5 92.5 C147.20688818 88.96555911 147.06005155 85.60309299 147 82 C146.0925 81.773125 145.185 81.54625 144.25 81.3125 C140.32084927 79.72572759 139.07717793 78.69276076 137 75 C136.65699006 72.45015506 136.50045999 69.97481698 136.46875 67.40234375 C136.21818825 64.8321523 136.21818825 64.8321523 133.99609375 63.20703125 C131.09436062 59.99865704 131.45186078 56.85435835 131.5625 52.75 C131.55541016 52.02425781 131.54832031 51.29851563 131.54101562 50.55078125 C131.58550058 46.71138767 131.99818503 43.65625053 133.49609375 40.109375 C135.48813637 35.30095536 135.44830055 30.64778833 135.5 25.5 C135.51810021 23.69773662 135.54916391 21.8955527 135.59375 20.09375 C135.60083984 19.30677734 135.60792969 18.51980469 135.61523438 17.70898438 C136 15 136 15 139 7 C110.95 7 82.9 7 54 7 C54 7.66 54 8.32 54 9 C53.34 9 52.68 9 52 9 C51.62101562 9.87205078 51.62101562 9.87205078 51.234375 10.76171875 C49.85621935 13.26071618 48.31416075 14.84834704 46.25 16.8125 C42.27478343 20.71408401 42.27478343 20.71408401 38.4375 24.75 C37.94121094 25.28109375 37.44492187 25.8121875 36.93359375 26.359375 C35.78935193 27.97915772 35.78935193 27.97915772 36.2890625 29.984375 C36.52367187 30.64953125 36.75828125 31.3146875 37 32 C37.309375 33.155 37.61875 34.31 37.9375 35.5 C38.82046733 38.85605762 38.82046733 38.85605762 40.1875 41.125 C41.2990395 43.69009115 40.73200777 45.36477202 40 48 C41.98 48 43.96 48 46 48 C45.34 49.32 44.68 50.64 44 52 C45.65 52.66 47.3 53.32 49 54 C49 54.66 49 55.32 49 56 C49.7425 55.773125 50.485 55.54625 51.25 55.3125 C54 55 54 55 56.3125 55.9375 C58.95378184 59.16573336 58.26798487 61.91323069 58 66 C57.01 66.33 56.02 66.66 55 67 C55.73227427 69.69965114 56.46797873 72.39808836 57.21484375 75.09375 C57.67427353 76.7943259 58.11377256 78.50095204 58.50390625 80.21875 C58.9493114 82.27244641 58.9493114 82.27244641 60 85 C60.65613281 85.27457031 61.31226563 85.54914063 61.98828125 85.83203125 C64 87 64 87 64.828125 89.6015625 C65.03695312 91.09816406 65.03695312 91.09816406 65.25 92.625 C65.39953125 93.62789063 65.5490625 94.63078125 65.703125 95.6640625 C65.80109375 96.43492188 65.8990625 97.20578125 66 98 C66.66 98 67.32 98 68 98 C68.33 98.66 68.66 99.32 69 100 C69.639375 100.144375 70.27875 100.28875 70.9375 100.4375 C73 101 73 101 75 104 C75.56120851 105.5064018 76.07998972 107.02907729 76.5625 108.5625 C77.27618593 110.81449343 77.94322352 112.88644704 79 115 C80.485 115.495 80.485 115.495 82 116 C84.02421466 118.99981976 84.15231867 121.20273794 83.9375 124.75 C83.82743206 129.61241311 84.49803598 134.07506397 85.5 138.8125 C87.4169037 148.12333339 89.14893307 159.10942914 85 168 C82.5 169.625 82.5 169.625 80 171 C78.03225047 174.73872411 76.48581164 179.00037859 77.5625 183.1875 C77.706875 183.785625 77.85125 184.38375 78 185 C75.93701866 187.06298134 74.87734763 187.52716916 72.1875 188.4375 C67.39380275 190.16879901 63.89595939 191.65606092 61 196 C60.52648628 197.61487337 60.09214881 199.24150969 59.6875 200.875 C58.32283377 205.61323199 56.94581331 208.04064002 53 211 C52.01 211 51.02 211 50 211 C49.95875 211.928125 49.9175 212.85625 49.875 213.8125 C49.441875 215.3903125 49.441875 215.3903125 49 217 C47.576875 217.61875 47.576875 217.61875 46.125 218.25 C42.44658315 220.30991344 42.32943189 221.04584155 41.1875 224.9375 C40.58837837 227.34487966 40.0508915 229.75475563 39.546875 232.18359375 C39 234 39 234 37.0625 236.125 C34.17960867 240.14357579 33.07684325 244.05129453 33 249 C33.98757336 251.81308775 35.20216235 253.56763142 37 256 C38.65 255.67 40.3 255.34 42 255 C42 258.10551666 41.4606285 259.35261084 40 262 C40.78375 262.12375 41.5675 262.2475 42.375 262.375 C45 263 45 263 47 265 C48.3492671 267.92341206 49 269.75207316 49 273 C51.68726558 270.8971941 51.68726558 270.8971941 54 268 C53.94607807 264.74961511 53.94607807 264.74961511 53 262 C54.0725 261.855625 55.145 261.71125 56.25 261.5625 C60.46784267 260.9298236 63.29113899 260.37613033 67.0625 258.375 C70 257 70 257 73 258 C74.38671875 259.55859375 74.38671875 259.55859375 75.6875 261.4375 C76.12449219 262.05496094 76.56148438 262.67242187 77.01171875 263.30859375 C78 265 78 265 78 267 C76.68 267 75.36 267 74 267 C73.67 267.99 73.34 268.98 73 270 C68.71 270 64.42 270 60 270 C59.67 271.32 59.34 272.64 59 274 C59.66 274.33 60.32 274.66 61 275 C60.67 275.99 60.34 276.98 60 278 C59.01 278.33 58.02 278.66 57 279 C55.68 277.68 54.36 276.36 53 275 C52.67 275.66 52.34 276.32 52 277 C45.25 274.25 45.25 274.25 43 272 C43 272.99 43 273.98 43 275 C43 276.66666667 43 278.33333333 43 280 C41.68 280.33 40.36 280.66 39 281 C38.77668801 282.58129029 38.57195356 284.16521089 38.375 285.75 C38.25898437 286.63171875 38.14296875 287.5134375 38.0234375 288.421875 C37.99755307 291.26916208 38.44241375 292.64257216 40 295 C42.0335948 296.26804566 42.0335948 296.26804566 44 297 C43.01 299.31 42.02 301.62 41 304 C40.34 304 39.68 304 39 304 C42.34697298 307.76534461 45.41043013 309.90867515 49.9609375 312.0390625 C55.19007236 314.50336743 60.0589094 317.62572382 64.91015625 320.75390625 C67.53847681 322.32107309 70.25630528 323.64476096 73 325 C83.01722872 330.12912555 92.8452018 335.5683968 102.59741211 341.18286133 C110.99498103 346.01485359 119.44873256 350.74370327 127.9140625 355.45581055 C128.9246875 356.01953369 129.9353125 356.58325684 130.9765625 357.1640625 C131.87455566 357.66373535 132.77254883 358.1634082 133.69775391 358.67822266 C135.506468 359.71665087 137.26466544 360.84311029 139 362 C139 362.99 139 363.98 139 365 C139.65774414 365.14260254 140.31548828 365.28520508 140.99316406 365.43212891 C148.68601836 367.28963212 154.9490051 370.39116496 161.75 374.375 C163.36104614 375.29841187 163.36104614 375.29841187 165.00463867 376.24047852 C167.23473138 377.5188517 169.4621828 378.80184324 171.68701172 380.08935547 C175.89278378 382.51488031 180.12291906 384.89559108 184.35522461 387.27441406 C208.52427106 400.86638504 208.52427106 400.86638504 211.98828125 403.52734375 C214.95642531 405.70014047 218.23313077 407.08329059 221.5625 408.62109375 C225.50466889 410.85119891 227.57200459 412.69602954 229.00390625 417.05859375 C229.56077611 420.42707229 230.03054953 423.58281732 230 427 C227.625 429.875 227.625 429.875 225 432 C224.58168596 435.71000718 224.58168596 435.71000718 225 439 C225.598125 438.814375 226.19625 438.62875 226.8125 438.4375 C229 438 229 438 232 439 C232.67482422 440.72476563 232.67482422 440.72476563 233.36328125 442.484375 C236.49237252 449.12390168 243.22097478 452.4244163 249.1875 456.25 C250.4716679 457.09337408 251.75445689 457.93885136 253.03588867 458.78637695 C255.55714804 460.45282557 258.08286966 462.11210466 260.61230469 463.76611328 C264.74634451 466.4795862 268.79261147 469.30811677 272.8125 472.1875 C280.60974162 477.7420667 288.46898239 483.20538597 296.3371582 488.65893555 C297.27390381 489.30902588 298.21064941 489.95911621 299.17578125 490.62890625 C300.01020752 491.20713135 300.84463379 491.78535645 301.7043457 492.38110352 C303.22401649 493.45277606 304.71382206 494.56821296 306.16870117 495.72631836 C307.9235292 497.24705746 307.9235292 497.24705746 310.125 496.75 C312.04498297 496.0121108 312.04498297 496.0121108 314 495 C314 495.66 314 496.32 314 497 C315.65 497.66 317.3 498.32 319 499 C319 499.33 319 499.66 319 500 C213.73 500 108.46 500 0 500 C0 335 0 170 0 0 Z " fill="#FEFEFE" transform="translate(0,0)"/>
<path d="M0 0 C3.03717884 2.22774202 4.98825421 4.87885217 6.65625 8.21484375 C6.73126051 10.0171795 6.80207037 11.81987098 6.84350586 13.62329102 C7.05991631 21.05282186 7.45072968 27.4520126 12.65625 33.21484375 C18.77709599 38.57964616 24.55306196 41.51532059 32.6484375 42.625 C34.26105469 42.85509766 34.26105469 42.85509766 35.90625 43.08984375 C37.42992187 43.27160156 37.42992187 43.27160156 38.984375 43.45703125 C41.65625 44.21484375 41.65625 44.21484375 43.48828125 46.09765625 C45.1074799 49.03279226 45.13771487 50.91337032 44.65625 54.21484375 C42.51117652 57.02072186 41.31622353 58.09172112 37.80859375 58.74609375 C24.78184863 58.61946682 13.92964429 54.14397357 3.65625 46.21484375 C1.48214214 56.84924899 1.48214214 56.84924899 3.67382812 67.08154297 C6.78499974 70.78709781 10.71495105 73.45790022 14.65625 76.21484375 C28.57495965 88.15677168 38.82944778 106.73673889 43.65625 124.21484375 C43.88054687 124.95734375 44.10484375 125.69984375 44.3359375 126.46484375 C46.12204278 133.11992095 46.6268313 140.40432412 45.65625 147.21484375 C43.84915885 149.93663536 42.58750415 151.74921667 39.65625 153.21484375 C35.55052857 153.6796424 33.44450872 153.78801538 30.05078125 151.3203125 C26.79838404 147.10227697 26.39290404 143.33454476 25.65625 138.15234375 C24.28465027 129.92133568 22.4712559 122.6998407 18.65625 115.21484375 C17.99496094 113.84005859 17.99496094 113.84005859 17.3203125 112.4375 C12.1947898 102.34220253 4.86083831 93.94456843 -3.34375 86.21484375 C-3.42109375 87.560625 -3.42109375 87.560625 -3.5 88.93359375 C-5.65128218 112.59769776 -20.87530933 127.96785926 -38.26953125 142.69140625 C-40.93292757 144.90429575 -43.622545 147.07363917 -46.34375 149.21484375 C-46.941875 149.69308594 -47.54 150.17132813 -48.15625 150.6640625 C-50.54584961 152.43759346 -52.40771216 153.22683665 -55.34375 153.77734375 C-58.5834473 153.16990051 -60.76165996 152.1637253 -63.19921875 149.90625 C-65.03983247 147.18616214 -65.02600397 144.70809118 -65.04296875 141.49609375 C-63.31092844 135.84519127 -56.56732331 131.74216148 -52.15625 127.96484375 C-50.81868187 126.80767132 -49.48144298 125.65011822 -48.14453125 124.4921875 C-45.90250995 122.55415022 -43.65143771 120.63044804 -41.38671875 118.71875 C-32.13503399 110.7461 -25.45832071 102.17307566 -23.92578125 89.85546875 C-23.56200651 83.4585242 -23.67900195 79.19448917 -27.78125 74.08984375 C-28.41933594 73.42726563 -29.05742187 72.7646875 -29.71484375 72.08203125 C-32.23967482 69.18786038 -32.35579263 66.94597011 -32.29296875 63.13183594 C-31.65035961 54.24320882 -30.74908555 45.41544831 -29.61425781 36.57617188 C-29.33866598 34.42516269 -29.07128156 32.27323489 -28.8046875 30.12109375 C-27.48208598 19.62985168 -27.48208598 19.62985168 -26.34375 16.21484375 C-40.72867527 24.11642242 -47.66997721 33.95699529 -53.34375 49.21484375 C-55.89536024 55.91591724 -55.89536024 55.91591724 -59.34375 58.21484375 C-63.02631285 58.08332365 -65.44123237 57.94813932 -68.34375 55.58984375 C-70.80634717 49.74117546 -67.48078505 41.92473428 -65.34375 36.21484375 C-57.57115071 19.2122828 -45.42542029 7.4453828 -28.34375 0.21484375 C-19.07723835 -3.23714606 -8.95549767 -5.15675173 0 0 Z " fill="#FBFDFE" transform="translate(203.34375,196.78515625)"/>
<path d="M0 0 C7.17641867 5.872837 12.09369585 13.39945036 13.046875 22.75390625 C13.17709766 34.2655894 10.98788855 42.01324167 3.00390625 50.4765625 C-5.21010279 57.57111545 -14.75191309 59.43260984 -25.32763672 58.72216797 C-33.26647176 57.64903194 -40.02578166 52.77536724 -44.890625 46.6171875 C-47.17742698 43.08478108 -48.77854656 39.37137901 -50.2890625 35.45703125 C-50.6190625 34.79703125 -50.9490625 34.13703125 -51.2890625 33.45703125 C-51.98245415 24.89762281 -51.72253396 17.90279168 -47.2890625 10.45703125 C-46.7321875 9.42578125 -46.1753125 8.39453125 -45.6015625 7.33203125 C-34.24824974 -6.78289813 -15.32382905 -10.32920217 0 0 Z " fill="#0991EB" transform="translate(311.2890625,211.54296875)"/>
<path d="M0 0 C3.8795701 2.77725683 6.51410237 5.42216136 8.6171875 9.765625 C9.65409747 16.42114013 9.70657062 22.99289267 6.1796875 28.890625 C2.19227418 33.91701221 -2.44707089 36.06950744 -8.6796875 37.171875 C-14.72128639 37.58853699 -18.78437831 35.57158527 -23.3828125 31.765625 C-27.55841696 27.37025189 -29.45990685 23.42929171 -29.6953125 17.390625 C-29.53990333 12.18441766 -28.43811334 8.01815167 -24.8359375 4.0703125 C-17.81083635 -2.3641828 -8.82335847 -4.57078898 0 0 Z " fill="#FBFDFE" transform="translate(217.3828125,152.234375)"/>
<path d="M0 0 C7.17641867 5.872837 12.09369585 13.39945036 13.046875 22.75390625 C13.17709766 34.2655894 10.98788855 42.01324167 3.00390625 50.4765625 C-5.21010279 57.57111545 -14.75191309 59.43260984 -25.32763672 58.72216797 C-33.26647176 57.64903194 -40.02578166 52.77536724 -44.890625 46.6171875 C-47.17742698 43.08478108 -48.77854656 39.37137901 -50.2890625 35.45703125 C-50.6190625 34.79703125 -50.9490625 34.13703125 -51.2890625 33.45703125 C-51.98245415 24.89762281 -51.72253396 17.90279168 -47.2890625 10.45703125 C-46.7321875 9.42578125 -46.1753125 8.39453125 -45.6015625 7.33203125 C-34.24824974 -6.78289813 -15.32382905 -10.32920217 0 0 Z M-42.2890625 11.45703125 C-46.29947474 18.14105164 -47.191107 24.96546365 -45.93359375 32.62109375 C-43.89265726 40.37391291 -38.61818199 46.4227475 -32.12109375 50.9765625 C-25.39628739 54.44308381 -17.78851211 54.8075154 -10.58203125 52.64453125 C-2.90079965 49.24638271 3.33495895 43.27643081 6.7109375 35.51953125 C8.91614212 28.25532781 8.45790244 21.38658579 5.02734375 14.62109375 C0.53096056 7.22941337 -4.905638 2.06414472 -13.2890625 -0.54296875 C-25.21148358 -2.46441574 -34.872046 2.13927514 -42.2890625 11.45703125 Z " fill="#F2F9FE" transform="translate(311.2890625,211.54296875)"/>
<path d="M0 0 C3.66504873 2.89182465 6.91303371 6.21208807 10.20385742 9.51757812 C11.80613012 11.11863495 13.43542841 12.6881124 15.06835938 14.2578125 C16.09553661 15.2768481 17.12098789 16.29762701 18.14453125 17.3203125 C19.54215698 18.70114014 19.54215698 18.70114014 20.96801758 20.10986328 C23.47181444 23.67107286 23.48662372 25.73498173 23 30 C22 31 22 31 19 31.625 C15.00924367 31.57593332 13.25669794 29.7472572 10.5 27 C8.97761267 25.35375743 7.47691764 23.68715502 6 22 C5.37867188 21.29617188 4.75734375 20.59234375 4.1171875 19.8671875 C2.97019624 18.55560557 1.83439368 17.2341404 0.7109375 15.90234375 C-1.07561898 13.91592136 -3.00304759 12.20949927 -5 10.4375 C-7.8511063 7.66293347 -7.99376755 7.386412 -8.0625 3.125 C-6.42880653 -1.6799808 -4.49555434 -1.43409031 0 0 Z " fill="#F8FBFE" transform="translate(332,270)"/>
<path d="M0 0 C0.66 0 1.32 0 2 0 C1.835 0.928125 1.67 1.85625 1.5 2.8125 C0.45532711 10.38637849 -0.36203698 18.39085306 4 25 C10.06593871 30.44272583 16.40810982 30.4663663 24.25390625 30.17578125 C25.16011719 30.11777344 26.06632812 30.05976563 27 30 C26.67 31.32 26.34 32.64 26 34 C20.18386296 35.86116385 14.63509065 35.40692812 9.05859375 33.11328125 C4.48620791 30.64054887 0.23698037 27.34986238 -2.20703125 22.70703125 C-3.17432197 19.40490086 -3.30129568 16.50222631 -3.3125 13.0625 C-3.32925781 11.87785156 -3.34601563 10.69320312 -3.36328125 9.47265625 C-2.96852257 5.69910284 -1.88752892 3.26208824 0 0 Z " fill="#E6F4FD" transform="translate(273,226)"/>
<path d="M0 0 C0.411497 3.40090171 0.23401992 4.68097284 -1.828125 7.4921875 C-2.62734375 8.27851563 -3.4265625 9.06484375 -4.25 9.875 C-5.03890625 10.67679687 -5.8278125 11.47859375 -6.640625 12.3046875 C-9 14 -9 14 -11.296875 13.7578125 C-13 13 -13 13 -13.7578125 11.296875 C-14 9 -14 9 -12.3046875 6.640625 C-11.50289063 5.85171875 -10.70109375 5.0628125 -9.875 4.25 C-9.08867187 3.45078125 -8.30234375 2.6515625 -7.4921875 1.828125 C-4.68097284 -0.23401992 -3.40090171 -0.411497 0 0 Z " fill="#EBF6FD" transform="translate(326,260)"/>
<path d="M0 0 C-0.125 1.875 -0.125 1.875 -1 4 C-4.01427603 5.40666215 -6.05977053 6.14845728 -9.375 5.625 C-9.91125 5.41875 -10.4475 5.2125 -11 5 C-10.67 3.68 -10.34 2.36 -10 1 C-6.61981469 -0.04005702 -3.5219721 -0.08004482 0 0 Z " fill="#377CA9" transform="translate(403,369)"/>
<path d="M0 0 C-0.33 0.99 -0.66 1.98 -1 3 C-2.97746603 3.73080266 -4.98072489 4.39421747 -7 5 C-7.99 5.66 -8.98 6.32 -10 7 C-10.33 6.01 -10.66 5.02 -11 4 C-7.83197749 -0.75203377 -5.47271855 -1.5201996 0 0 Z " fill="#318BC7" transform="translate(412,361)"/>
<path d="M0 0 C0.66 0.33 1.32 0.66 2 1 C2 1.66 2 2.32 2 3 C4.31 3.66 6.62 4.32 9 5 C6.50935112 5.68707555 4.62113708 6 2 6 C1.01 7.485 1.01 7.485 0 9 C-0.66 6.69 -1.32 4.38 -2 2 C-1.34 1.34 -0.68 0.68 0 0 Z " fill="#3980AF" transform="translate(43,271)"/>
<path d="M0 0 C0.33 0.66 0.66 1.32 1 2 C2.64363134 2.72159424 4.31050386 3.39351421 6 4 C6 4.33 6 4.66 6 5 C3.03 5 0.06 5 -3 5 C-2.01 3.35 -1.02 1.7 0 0 Z " fill="#E6ECEF" transform="translate(313,495)"/>
<path d="M0 0 C0.66 0.33 1.32 0.66 2 1 C1.05125 1.9075 0.1025 2.815 -0.875 3.75 C-3.14549867 6.00978877 -4.83296506 7.96570916 -6 11 C-6.3125 8.8125 -6.3125 8.8125 -6 6 C-3.5625 3.25 -3.5625 3.25 -1 1 C-0.67 0.67 -0.34 0.34 0 0 Z " fill="#1C79B6" transform="translate(66,190)"/>
<path d="M0 0 C1.65 0.33 3.3 0.66 5 1 C4.67 1.99 4.34 2.98 4 4 C2.35 4 0.7 4 -1 4 C-0.67 2.68 -0.34 1.36 0 0 Z " fill="#1779B9" transform="translate(407,360)"/>
<path d="M0 0 C0.33 0 0.66 0 1 0 C1 1.98 1 3.96 1 6 C1.66 6.33 2.32 6.66 3 7 C1.35 7.33 -0.3 7.66 -2 8 C-1.125 1.125 -1.125 1.125 0 0 Z " fill="#548AAE" transform="translate(402,354)"/>
<path d="M0 0 C1.32 0 2.64 0 4 0 C3.6875 1.9375 3.6875 1.9375 3 4 C2.01 4.33 1.02 4.66 0 5 C0 3.35 0 1.7 0 0 Z " fill="#2887C5" transform="translate(399,369)"/>
</svg>
